<?xml version="1.0" encoding="utf-8"?>
<!-- Generator: Adobe Illustrator 26.2.1, SVG Export Plug-In . SVG Version: 6.00 Build 0)  -->
<svg version="1.1" id="Ebene_1" xmlns="http://www.w3.org/2000/svg" xmlns:xlink="http://www.w3.org/1999/xlink" x="0px" y="0px"
	 viewBox="0 0 16 16" style="enable-background:new 0 0 16 16;" xml:space="preserve">
<style type="text/css">
	.st0{fill:#ABD7FF;}
	.st1{opacity:0.15;fill:#212121;enable-background:new    ;}
	.st2{fill:#FFC857;}
	.st3{fill:#5599FF;}
	.st4{enable-background:new    ;}
</style>
<g>
	<path class="st0" d="M15,9.3c-1.2-0.3-2-0.8-2.8-1.1c0,0.2,0.1,0.2,0,0.3c-0.8,0.9-2.5,0.8-3.3,0c-0.1-0.1-0.1-0.2,0-0.3
		C8,8.5,7.2,9,6,9.3c0,0-1,0.6-1,2.7h11C15.9,9.8,15,9.3,15,9.3z"/>
	<path class="st1" d="M5.8,11.3c0.1-0.9,0.5-1.3,0.6-1.4c0.8-0.2,1.4-0.5,1.9-0.7l0.2-0.1C9,9.6,9.8,9.9,10.6,9.9s1.6-0.3,2.1-0.8
		l0.2,0.1c0.5,0.2,1.2,0.5,1.9,0.7c0.1,0.1,0.4,0.5,0.6,1.4l0.1,0.7H16c-0.1-2.2-1-2.7-1-2.7c-1.2-0.3-2-0.8-2.8-1.1
		c0,0.2,0.1,0.2,0,0.3c-0.4,0.4-1,0.6-1.6,0.6C9.9,9.2,9.2,9,8.8,8.6c-0.1-0.1-0.1-0.2,0-0.3C8,8.5,7.2,9,6,9.3c0,0-1,0.6-1,2.7h0.7
		L5.8,11.3z"/>
	<path class="st2" d="M10.5,7.2c-0.5,0-1-0.3-1.4-0.7c0,1.7-0.5,1.8-0.3,2.1c0.8,0.8,2.5,0.9,3.3,0c0.3-0.3-0.2-0.4-0.3-2.1
		C11.5,6.9,11,7.2,10.5,7.2z"/>
	<path class="st1" d="M8.6,8.3c0.1,0,0.1-0.1,0.2-0.1c-0.1,0.2-0.1,0.2,0,0.3C8.9,8.7,9,8.7,9.2,8.8l0.2-0.1l0.1-0.3V8.3
		C9.6,8.2,9.7,7.7,9.8,7C9.5,6.9,9.3,6.7,9.1,6.5c0,1-0.2,1.5-0.3,1.7C8.8,8.2,8.7,8.3,8.6,8.3z M11.5,8.4l0.1,0.3l0.2,0.1
		c0.1-0.1,0.2-0.2,0.3-0.3s0.1-0.2,0-0.3l0,0c-0.1-0.3-0.3-0.7-0.3-1.7c-0.2,0.2-0.4,0.4-0.7,0.5C11.3,7.7,11.4,8.1,11.5,8.4
		C11.5,8.3,11.5,8.4,11.5,8.4z"/>
	<path class="st2" d="M10.5,7.2c-1.2,0-2.3-1.6-2.3-2.7V3c0-1.1,1-2,2.1-2h0.6C12.1,1,13,1.9,13,3v1.5C12.8,5.6,11.7,7.2,10.5,7.2z"
		/>
	<path class="st1" d="M10.8,1.7c0.8,0,1.4,0.6,1.4,1.3v1.5c0,0.8-0.9,2-1.6,2S9,5.3,9,4.5V3c0-0.7,0.6-1.3,1.4-1.3H10.8 M10.8,1
		h-0.6c-1.1,0-2,0.9-2,2v1.5c0,1.1,1.2,2.7,2.3,2.7s2.3-1.6,2.3-2.7V3C12.8,1.9,11.9,1,10.8,1z"/>
</g>
<g>
	<path class="st3" d="M10,12.3c-1.2-0.3-2-0.8-2.8-1.1c0,0.2,0.1,0.2,0,0.3c-0.8,0.9-2.5,0.8-3.3,0c-0.1-0.1-0.1-0.2,0-0.3
		C3,11.5,2.2,12,1,12.3c0,0-1,0.6-1,2.7h11C10.9,12.8,10,12.3,10,12.3z"/>
	<path class="st1" d="M0.8,14.3c0.1-0.9,0.5-1.3,0.6-1.4c0.8-0.2,1.4-0.5,1.9-0.7l0.2-0.1c0.5,0.5,1.3,0.8,2.1,0.8s1.6-0.3,2.1-0.8
		l0.2,0.1c0.5,0.2,1.2,0.5,1.9,0.7c0.1,0.1,0.4,0.5,0.6,1.4l0.1,0.7H11c-0.1-2.2-1-2.7-1-2.7c-1.2-0.3-2-0.8-2.8-1.1
		c0,0.2,0.1,0.2,0,0.3c-0.4,0.4-1,0.6-1.6,0.6s-1.3-0.2-1.7-0.6c-0.1-0.1-0.1-0.2,0-0.3C3,11.5,2.2,12,1,12.3c0,0-1,0.6-1,2.7h0.7
		L0.8,14.3z"/>
	<path class="st2" d="M5.5,10.2c-0.5,0-1-0.3-1.4-0.7c0,1.7-0.5,1.8-0.3,2.1c0.8,0.8,2.5,0.9,3.3,0c0.3-0.3-0.2-0.4-0.3-2.1
		C6.5,9.9,6,10.2,5.5,10.2z"/>
	<path class="st1" d="M3.6,11.3c0.1,0,0.1-0.1,0.2-0.1c-0.1,0.2-0.1,0.2,0,0.3s0.2,0.2,0.3,0.3l0.2-0.1l0.1-0.3v-0.1
		c0.1-0.2,0.2-0.7,0.3-1.4c-0.2,0-0.4-0.2-0.6-0.4c0,1-0.2,1.5-0.3,1.7C3.8,11.2,3.7,11.3,3.6,11.3z M6.5,11.4l0.1,0.3l0.2,0.1
		c0.1-0.1,0.2-0.2,0.3-0.3c0.1-0.1,0.1-0.2,0-0.3l0,0c0-0.2-0.2-0.7-0.2-1.7C6.7,9.7,6.5,9.9,6.2,10C6.3,10.7,6.4,11.1,6.5,11.4
		C6.5,11.3,6.5,11.4,6.5,11.4z"/>
	<path class="st2" d="M5.5,10.2c-1.2,0-2.3-1.6-2.3-2.7V6c0-1.1,1-2,2.1-2h0.6C7.1,4,8,4.9,8,6v1.5C7.8,8.6,6.7,10.2,5.5,10.2z"/>
	<path class="st1" d="M5.8,4.7c0.8,0,1.4,0.6,1.4,1.3v1.5c0,0.8-0.9,2-1.7,2s-1.7-1.2-1.7-2V6c0-0.7,0.6-1.3,1.4-1.3H5.8 M5.8,4H5.2
		c-1.1,0-2,0.9-2,2v1.5c0,1.1,1.2,2.7,2.3,2.7s2.3-1.6,2.3-2.7V6C7.8,4.9,6.9,4,5.8,4z"/>
</g>
<g class="st4">
	<path d="M1.8,15V6.4H5c0.6,0,1,0,1.3,0.1c0.4,0.1,0.8,0.2,1.1,0.4s0.5,0.5,0.7,0.8c0.2,0.4,0.3,0.7,0.3,1.2c0,0.7-0.2,1.3-0.7,1.9
		s-1.3,0.8-2.5,0.8H2.9V15H1.8z M2.9,10.5h2.2c0.7,0,1.3-0.1,1.6-0.4s0.5-0.7,0.5-1.2c0-0.4-0.1-0.7-0.3-0.9
		C6.7,7.8,6.5,7.6,6.2,7.5C6,7.4,5.6,7.4,5.1,7.4H2.9V10.5z"/>
	<path d="M7.9,15l3.3-8.6h1.2L16,15h-1.3l-1-2.6h-3.6L9.1,15H7.9z M10.4,11.5h2.9l-0.9-2.4c-0.3-0.7-0.5-1.3-0.6-1.8
		c-0.1,0.6-0.3,1.1-0.5,1.6L10.4,11.5z"/>
</g>
</svg>
